<svg width="21" height="20" viewBox="0 0 21 20" fill="none" xmlns="http://www.w3.org/2000/svg">
<path fill-rule="evenodd" clip-rule="evenodd" d="M10.4196 11.3476C13.4041 11.3476 15.8234 9.11442 15.8234 6.35961C15.8234 3.6048 13.4041 1.37159 10.4196 1.37159C7.43522 1.37159 5.01587 3.6048 5.01587 6.35961C5.01587 9.11442 7.43522 11.3476 10.4196 11.3476ZM7.92536 3.68754C7.97234 3.68754 8.01827 3.70147 8.05733 3.72757C8.0964 3.75367 8.12684 3.79077 8.14482 3.83418C8.1628 3.87758 8.16751 3.92534 8.15834 3.97142C8.14917 4.0175 8.12655 4.05983 8.09333 4.09305C8.06011 4.12627 8.01778 4.1489 7.9717 4.15806C7.92562 4.16723 7.87786 4.16252 7.83446 4.14454C7.79105 4.12656 7.75395 4.09612 7.72785 4.05705C7.70175 4.01799 7.68781 3.97206 7.68781 3.92508C7.68781 3.86208 7.71284 3.80166 7.75739 3.75711C7.80194 3.71256 7.86236 3.68754 7.92536 3.68754ZM13.0451 3.72747C13.0061 3.70139 12.9601 3.68749 12.9131 3.68754C12.8501 3.68759 12.7898 3.71264 12.7453 3.75719C12.7008 3.80173 12.6758 3.86212 12.6758 3.92508C12.6758 3.97207 12.6897 4.01801 12.7158 4.05708C12.7419 4.09615 12.7791 4.12659 12.8225 4.14457C12.8659 4.16254 12.9137 4.16723 12.9597 4.15805C13.0058 4.14886 13.0482 4.12622 13.0814 4.09298C13.1146 4.05973 13.1372 4.01739 13.1463 3.97129C13.1555 3.9252 13.1507 3.87743 13.1327 3.83403C13.1147 3.79063 13.0842 3.75354 13.0451 3.72747Z" fill="white"/>
<path d="M14.5171 5.11266H6.3225C5.601 5.11266 5.01611 5.69755 5.01611 6.41905V14.6138C5.01611 15.3353 5.601 15.9202 6.3225 15.9202H14.5171C15.2386 15.9202 15.8235 15.3353 15.8235 14.6138V6.41905C15.8235 5.69755 15.2386 5.11266 14.5171 5.11266Z" fill="white"/>
<path d="M6.87955 0.0487312C6.83521 0.0733079 6.79615 0.106387 6.76461 0.146076C6.73307 0.185765 6.70967 0.231284 6.69574 0.280028C6.68182 0.328772 6.67764 0.379784 6.68345 0.430144C6.68926 0.480504 6.70495 0.529224 6.72961 0.573515L8.83132 4.36481C8.85589 4.40914 8.88895 4.4482 8.92861 4.47976C8.96828 4.51131 9.01377 4.53474 9.06249 4.54871C9.11121 4.56269 9.16221 4.56693 9.21257 4.56119C9.26293 4.55546 9.31166 4.53986 9.35599 4.51529C9.40032 4.49072 9.43938 4.45765 9.47094 4.41799C9.50249 4.37832 9.52592 4.33283 9.53989 4.28411C9.55387 4.23539 9.55811 4.1844 9.55237 4.13404C9.54664 4.08368 9.53104 4.03494 9.50647 3.99061L7.40476 0.199312C7.38024 0.154863 7.34718 0.115694 7.30748 0.0840535C7.26778 0.0524126 7.22223 0.0289226 7.17343 0.0149318C7.12463 0.000940973 7.07355 -0.00327527 7.02312 0.00252494C6.97269 0.00832514 6.9239 0.0240276 6.87955 0.0487312Z" fill="white"/>
<path d="M17.4862 6.36002C17.1084 6.36024 16.7462 6.51048 16.4791 6.77771C16.212 7.04493 16.062 7.40727 16.062 7.78507V12.8326C16.062 13.2106 16.2122 13.5731 16.4794 13.8403C16.7467 14.1076 17.1091 14.2577 17.4871 14.2577C17.865 14.2577 18.2275 14.1076 18.4947 13.8403C18.762 13.5731 18.9121 13.2106 18.9121 12.8326V7.78507C18.9121 7.59786 18.8752 7.41248 18.8036 7.23953C18.7319 7.06658 18.6269 6.90944 18.4944 6.7771C18.362 6.64476 18.2048 6.53981 18.0318 6.46825C17.8588 6.39668 17.6734 6.3599 17.4862 6.36002Z" fill="white"/>
<path d="M12.4387 12.1196C12.0607 12.1196 11.6982 12.2697 11.431 12.537C11.1637 12.8042 11.0135 13.1667 11.0134 13.5446V18.5922C11.018 18.9671 11.1702 19.3252 11.437 19.5887C11.7037 19.8522 12.0636 20 12.4386 20C12.8136 20 13.1734 19.8522 13.4402 19.5887C13.707 19.3252 13.8592 18.9671 13.8638 18.5922V13.5446C13.8638 13.1667 13.7136 12.8042 13.4464 12.537C13.1791 12.2697 12.8166 12.1196 12.4387 12.1196Z" fill="white"/>
<path d="M13.9605 0.0488225C14.0048 0.0733992 14.0439 0.106478 14.0754 0.146167C14.1069 0.185856 14.1303 0.231375 14.1443 0.280119C14.1582 0.328863 14.1624 0.379875 14.1566 0.430235C14.1507 0.480596 14.1351 0.529316 14.1104 0.573607L12.0087 4.3649C11.9841 4.40924 11.9511 4.44829 11.9114 4.47985C11.8717 4.5114 11.8262 4.53483 11.7775 4.54881C11.7288 4.56278 11.6778 4.56702 11.6274 4.56128C11.5771 4.55555 11.5283 4.53995 11.484 4.51538C11.4397 4.49081 11.4006 4.45775 11.3691 4.41808C11.3375 4.37842 11.3141 4.33293 11.3001 4.2842C11.2861 4.23548 11.2819 4.18449 11.2876 4.13413C11.2934 4.08377 11.309 4.03503 11.3335 3.9907L13.435 0.199403C13.4596 0.154926 13.4926 0.115732 13.5323 0.0840728C13.5721 0.0524134 13.6176 0.0289124 13.6665 0.0149201C13.7153 0.000927801 13.7664 -0.00327991 13.8168 0.0025381C13.8673 0.00835611 13.9161 0.0240854 13.9605 0.0488225Z" fill="white"/>
<path d="M3.35374 6.36002C3.73169 6.36002 4.09416 6.51016 4.36141 6.77741C4.62866 7.04466 4.77879 7.40712 4.77879 7.78507V12.8326C4.7742 13.2076 4.62202 13.5656 4.35525 13.8291C4.08848 14.0927 3.72861 14.2404 3.35363 14.2404C2.97865 14.2404 2.61878 14.0927 2.35201 13.8291C2.08524 13.5656 1.93306 13.2076 1.92847 12.8326V7.78507C1.92852 7.4071 2.07871 7.04464 2.34599 6.77739C2.61328 6.51015 2.97577 6.36002 3.35374 6.36002Z" fill="white"/>
<path d="M8.40113 12.1196C8.7791 12.1196 9.14159 12.2697 9.40887 12.537C9.67616 12.8042 9.82635 13.1667 9.8264 13.5446V18.5922C9.82181 18.9671 9.66963 19.3252 9.40286 19.5887C9.13609 19.8522 8.77622 20 8.40124 20C8.02626 20 7.66639 19.8522 7.39962 19.5887C7.13285 19.3252 6.98067 18.9671 6.97607 18.5922V13.5446C6.97607 13.1667 7.12621 12.8042 7.39346 12.537C7.66071 12.2697 8.02318 12.1196 8.40113 12.1196Z" fill="white"/>
<mask id="mask0_470_42414" style="mask-type:alpha" maskUnits="userSpaceOnUse" x="5" y="5" width="11" height="11">
<path d="M14.5171 5.11266H6.3225C5.601 5.11266 5.01611 5.69755 5.01611 6.41905V14.6138C5.01611 15.3353 5.601 15.9202 6.3225 15.9202H14.5171C15.2386 15.9202 15.8235 15.3353 15.8235 14.6138V6.41905C15.8235 5.69755 15.2386 5.11266 14.5171 5.11266Z" fill="#6D6D6D"/>
</mask>
<g mask="url(#mask0_470_42414)">
<path d="M4.77881 6.7815H16.0615V6.35396H4.77881" fill="#27AE34"/>
</g>
</svg>
