<svg width="16" height="17" viewBox="0 0 16 17" fill="none" xmlns="http://www.w3.org/2000/svg">
<path d="M7.99984 15.22C7.79984 15.22 7.59985 15.1733 7.43319 15.08C6.18652 14.4 3.99984 13.68 2.62651 13.5L2.43319 13.4734C1.55985 13.3667 0.839844 12.5467 0.839844 11.66V3.60666C0.839844 3.07999 1.04651 2.60001 1.42651 2.25335C1.80651 1.90668 2.29982 1.74001 2.81982 1.78667C4.27982 1.90667 6.49317 2.64001 7.7465 3.42001L7.90649 3.51336C7.95316 3.53336 8.05318 3.54002 8.09318 3.51336L8.19983 3.44667C8.6465 3.16667 9.20649 2.89332 9.81982 2.64666C9.97316 2.58666 10.1465 2.60667 10.2865 2.7C10.4265 2.79334 10.5065 2.94667 10.5065 3.11333V4.89999L11.0599 4.53334C11.2265 4.42 11.4465 4.42 11.6132 4.53334L12.1665 4.89999V2.35336C12.1665 2.11336 12.3398 1.90666 12.5732 1.86C12.7665 1.82666 12.9598 1.80001 13.1332 1.78667C13.1465 1.78667 13.1998 1.78667 13.2132 1.78667C13.6998 1.74667 14.1998 1.91335 14.5732 2.26002C14.9532 2.60669 15.1598 3.08667 15.1598 3.61333V11.66C15.1598 12.5533 14.4399 13.3667 13.5599 13.4734L13.3398 13.5C11.9665 13.68 9.76651 14.4067 8.54651 15.08C8.39984 15.1733 8.19984 15.22 7.99984 15.22ZM2.65316 2.77333C2.43982 2.77333 2.24651 2.84666 2.09318 2.98666C1.92651 3.14 1.83317 3.35999 1.83317 3.60666V11.66C1.83317 12.0533 2.17318 12.4333 2.55318 12.4867L2.75317 12.5134C4.25317 12.7134 6.55318 13.4667 7.88652 14.2C7.94652 14.2267 8.03315 14.2334 8.06649 14.22C9.40649 13.48 11.7132 12.72 13.2198 12.52L13.4465 12.4933C13.8265 12.4467 14.1665 12.06 14.1665 11.6667V3.62001C14.1665 3.37334 14.0732 3.16001 13.9065 3.00001C13.7398 2.84668 13.5065 2.77334 13.2665 2.78667C13.2465 2.78667 13.1865 2.78667 13.1732 2.78667V5.83334C13.1732 6.02001 13.0732 6.18666 12.9065 6.27333C12.7398 6.35999 12.5465 6.35334 12.3932 6.24667L11.3398 5.54668L10.2865 6.24667C10.1332 6.34667 9.93982 6.35999 9.77315 6.27333C9.61315 6.18666 9.50651 6.02001 9.50651 5.83334V3.88002C9.21984 4.02002 8.95982 4.16001 8.73315 4.29335L8.62651 4.36C8.25984 4.58666 7.73985 4.58667 7.38652 4.36667L7.22652 4.26669C6.09986 3.56003 4.04649 2.87999 2.73983 2.77333C2.70649 2.77333 2.67982 2.77333 2.65316 2.77333Z" fill="white"/>
<path d="M8 14.66C7.72667 14.66 7.5 14.4333 7.5 14.16V4.15999C7.5 3.88666 7.72667 3.65999 8 3.65999C8.27333 3.65999 8.5 3.88666 8.5 4.15999V14.16C8.5 14.44 8.27333 14.66 8 14.66Z" fill="white"/>
<path d="M12.6667 6.33333C12.5667 6.33333 12.4733 6.30666 12.3867 6.24666L11.3333 5.54666L10.28 6.24666C10.1267 6.34666 9.93335 6.35997 9.76668 6.27331C9.60668 6.18664 9.5 6.01999 9.5 5.83333V3.11331C9.5 2.90665 9.62665 2.72664 9.81331 2.64664C10.7333 2.27997 11.74 1.99331 12.5867 1.85998C12.7333 1.83331 12.88 1.88001 12.9933 1.97334C13.1067 2.06667 13.1667 2.20668 13.1667 2.35335V5.83333C13.1667 6.01999 13.0667 6.18664 12.9 6.27331C12.8267 6.31331 12.7467 6.33333 12.6667 6.33333ZM11.3333 4.44665C11.4267 4.44665 11.5267 4.47332 11.6133 4.53332L12.1667 4.89998V2.95999C11.6333 3.07999 11.0533 3.25333 10.5 3.45999V4.89998L11.0533 4.53332C11.14 4.47332 11.24 4.44665 11.3333 4.44665Z" fill="white"/>
</svg>
