<svg width="16" height="17" viewBox="0 0 16 17" fill="none" xmlns="http://www.w3.org/2000/svg">
<path d="M12.1266 12.3333H5.02664C4.36664 12.3333 3.73331 12.0533 3.28664 11.5667C2.83997 11.08 2.61331 10.4267 2.66665 9.76666L3.21998 3.12667C3.23998 2.92 3.16664 2.72 3.02664 2.56667C2.88664 2.41334 2.69331 2.33333 2.48664 2.33333H1.33331C1.05998 2.33333 0.833313 2.10667 0.833313 1.83333C0.833313 1.56 1.05998 1.33333 1.33331 1.33333H2.49332C2.97998 1.33333 3.43998 1.54 3.76664 1.89333C3.94664 2.09333 4.07998 2.32667 4.15331 2.58667H12.48C13.1533 2.58667 13.7733 2.85333 14.2266 3.33333C14.6733 3.82 14.9 4.45333 14.8466 5.12667L14.4866 10.1267C14.4133 11.3467 13.3466 12.3333 12.1266 12.3333ZM4.18665 3.58L3.66665 9.84666C3.63331 10.2333 3.75998 10.6 4.01998 10.8867C4.27998 11.1733 4.63998 11.3267 5.02664 11.3267H12.1266C12.82 11.3267 13.4466 10.74 13.5 10.0467L13.86 5.04667C13.8866 4.65334 13.76 4.28001 13.5 4.00667C13.24 3.72667 12.88 3.57332 12.4866 3.57332H4.18665V3.58Z" fill="white"/>
<path d="M10.8333 15.6667C10.1 15.6667 9.5 15.0667 9.5 14.3333C9.5 13.6 10.1 13 10.8333 13C11.5667 13 12.1667 13.6 12.1667 14.3333C12.1667 15.0667 11.5667 15.6667 10.8333 15.6667ZM10.8333 14C10.6467 14 10.5 14.1467 10.5 14.3333C10.5 14.52 10.6467 14.6667 10.8333 14.6667C11.02 14.6667 11.1667 14.52 11.1667 14.3333C11.1667 14.1467 11.02 14 10.8333 14Z" fill="white"/>
<path d="M5.50002 15.6667C4.76669 15.6667 4.16669 15.0667 4.16669 14.3333C4.16669 13.6 4.76669 13 5.50002 13C6.23335 13 6.83335 13.6 6.83335 14.3333C6.83335 15.0667 6.23335 15.6667 5.50002 15.6667ZM5.50002 14C5.31335 14 5.16669 14.1467 5.16669 14.3333C5.16669 14.52 5.31335 14.6667 5.50002 14.6667C5.68669 14.6667 5.83335 14.52 5.83335 14.3333C5.83335 14.1467 5.68669 14 5.50002 14Z" fill="white"/>
<path d="M14 6.33333H6C5.72667 6.33333 5.5 6.10667 5.5 5.83333C5.5 5.56 5.72667 5.33333 6 5.33333H14C14.2733 5.33333 14.5 5.56 14.5 5.83333C14.5 6.10667 14.2733 6.33333 14 6.33333Z" fill="white"/>
</svg>
