<svg width="21" height="20" viewBox="0 0 21 20" fill="none" xmlns="http://www.w3.org/2000/svg">
<path d="M11.1894 2.77715C11.6733 2.03566 12.0057 1.0253 11.9132 0C11.213 0.0387962 10.3361 0.594599 9.83075 1.31928C9.38395 1.95952 8.98558 3.00702 9.08767 3.99352C9.87562 4.06696 10.6835 3.5068 11.1894 2.77715Z" fill="white"/>
<path d="M14.907 8.59429C14.8877 6.59586 16.5784 5.62439 16.6556 5.5797C15.6995 4.21357 14.2154 4.02685 13.694 4.01303C12.4478 3.88501 11.2396 4.74249 10.6062 4.74249C9.95867 4.74249 8.98107 4.02534 7.92822 4.04693C6.57258 4.067 5.30516 4.8349 4.61041 6.0285C3.17526 8.46041 4.24495 12.0331 5.62013 13.9991C6.30869 14.9613 7.11216 16.036 8.16289 15.9991C9.19157 15.9574 9.57522 15.3575 10.8173 15.3575C12.0478 15.3575 12.4084 15.9991 13.4814 15.976C14.5857 15.9589 15.2806 15.009 15.9452 14.0376C16.7384 12.9335 17.059 11.8479 17.0716 11.7924C17.0464 11.7801 14.9275 10.9891 14.907 8.59429Z" fill="white"/>
</svg>
