<svg width="29" height="29" viewBox="0 0 29 29" fill="none" xmlns="http://www.w3.org/2000/svg">
<path d="M21 13.875H17.6333C15.9583 13.875 15.15 13.0583 15.15 11.3917V8.025C15.15 6.35 15.9667 5.54167 17.6333 5.54167H21C22.675 5.54167 23.4833 6.35833 23.4833 8.025V11.3917C23.4833 13.0583 22.6667 13.875 21 13.875ZM17.6333 6.79167C16.65 6.79167 16.4 7.04167 16.4 8.025V11.3917C16.4 12.375 16.65 12.625 17.6333 12.625H21C21.9833 12.625 22.2333 12.375 22.2333 11.3917V8.025C22.2333 7.04167 21.9833 6.79167 21 6.79167H17.6333Z" fill="white"/>
<path d="M11.4167 13.875H8.05C6.375 13.875 5.56667 13.1333 5.56667 11.6V7.81667C5.56667 6.28333 6.38333 5.54167 8.05 5.54167H11.4167C13.0917 5.54167 13.9 6.28333 13.9 7.81667V11.5917C13.9 13.1333 13.0833 13.875 11.4167 13.875ZM8.05 6.79167C6.93333 6.79167 6.81667 7.10833 6.81667 7.81667V11.5917C6.81667 12.3083 6.93333 12.6167 8.05 12.6167H11.4167C12.5333 12.6167 12.65 12.3 12.65 11.5917V7.81667C12.65 7.1 12.5333 6.79167 11.4167 6.79167H8.05Z" fill="white"/>
<path d="M11.4167 23.4583H8.05C6.375 23.4583 5.56667 22.6417 5.56667 20.975V17.6083C5.56667 15.9333 6.38333 15.125 8.05 15.125H11.4167C13.0917 15.125 13.9 15.9417 13.9 17.6083V20.975C13.9 22.6417 13.0833 23.4583 11.4167 23.4583ZM8.05 16.375C7.06667 16.375 6.81667 16.625 6.81667 17.6083V20.975C6.81667 21.9583 7.06667 22.2083 8.05 22.2083H11.4167C12.4 22.2083 12.65 21.9583 12.65 20.975V17.6083C12.65 16.625 12.4 16.375 11.4167 16.375H8.05Z" fill="white"/>
<path d="M22.025 18.0417H17.025C16.6833 18.0417 16.4 17.7583 16.4 17.4167C16.4 17.075 16.6833 16.7917 17.025 16.7917H22.025C22.3667 16.7917 22.65 17.075 22.65 17.4167C22.65 17.7583 22.3667 18.0417 22.025 18.0417Z" fill="white"/>
<path d="M22.025 21.375H17.025C16.6833 21.375 16.4 21.0917 16.4 20.75C16.4 20.4083 16.6833 20.125 17.025 20.125H22.025C22.3667 20.125 22.65 20.4083 22.65 20.75C22.65 21.0917 22.3667 21.375 22.025 21.375Z" fill="white"/>
</svg>
