<svg width="13" height="14" viewBox="0 0 12 13" fill="none" xmlns="http://www.w3.org/2000/svg">
<path fill-rule="evenodd" clip-rule="evenodd" d="M0.5 2C0.5 1.72386 0.723858 1.5 1 1.5H4C4.66304 1.5 5.29893 1.76339 5.76777 2.23223C6.23661 2.70107 6.5 3.33696 6.5 4V11C6.5 11.2761 6.27614 11.5 6 11.5C5.72386 11.5 5.5 11.2761 5.5 11C5.5 10.7348 5.39464 10.4804 5.20711 10.2929C5.01957 10.1054 4.76522 10 4.5 10H1C0.723858 10 0.5 9.77614 0.5 9.5V2ZM5.5 9.26794V4C5.5 3.60218 5.34196 3.22064 5.06066 2.93934C4.77936 2.65804 4.39782 2.5 4 2.5H1.5V9H4.5C4.85411 9 5.19855 9.09391 5.5 9.26794Z" fill="#343A40"/>
<path fill-rule="evenodd" clip-rule="evenodd" d="M6.23223 2.23223C6.70107 1.76339 7.33696 1.5 8 1.5H11C11.2761 1.5 11.5 1.72386 11.5 2V9.5C11.5 9.77614 11.2761 10 11 10H7.5C7.23478 10 6.98043 10.1054 6.79289 10.2929C6.60536 10.4804 6.5 10.7348 6.5 11C6.5 11.2761 6.27614 11.5 6 11.5C5.72386 11.5 5.5 11.2761 5.5 11V4C5.5 3.33696 5.76339 2.70107 6.23223 2.23223ZM6.5 9.26794C6.80145 9.09391 7.14589 9 7.5 9H10.5V2.5H8C7.60218 2.5 7.22064 2.65804 6.93934 2.93934C6.65804 3.22064 6.5 3.60218 6.5 4V9.26794Z" fill="#343A40"/>
</svg>
