<svg width="16" height="14" viewBox="0 0 16 14" fill="none" xmlns="http://www.w3.org/2000/svg">
	<path fill-rule="evenodd" clip-rule="evenodd" d="M0.666992 1.18522C0.666992 0.817032 0.965469 0.518555 1.33366 0.518555H5.33366C6.21771 0.518555 7.06556 0.869744 7.69068 1.49487C8.3158 2.11999 8.66699 2.96783 8.66699 3.85189V13.1852C8.66699 13.5534 8.36852 13.8519 8.00033 13.8519C7.63213 13.8519 7.33366 13.5534 7.33366 13.1852C7.33366 12.8316 7.19318 12.4925 6.94313 12.2424C6.69309 11.9924 6.35395 11.8519 6.00033 11.8519H1.33366C0.965469 11.8519 0.666992 11.5534 0.666992 11.1852V1.18522ZM7.33366 10.8758V3.85189C7.33366 3.32146 7.12294 2.81275 6.74787 2.43767C6.3728 2.0626 5.86409 1.85189 5.33366 1.85189H2.00033V10.5186H6.00033C6.47248 10.5186 6.93172 10.6438 7.33366 10.8758Z" fill="#828282"/>
	<path fill-rule="evenodd" clip-rule="evenodd" d="M8.30997 1.49487C8.93509 0.869744 9.78294 0.518555 10.667 0.518555H14.667C15.0352 0.518555 15.3337 0.817032 15.3337 1.18522V11.1852C15.3337 11.5534 15.0352 11.8519 14.667 11.8519H10.0003C9.6467 11.8519 9.30756 11.9924 9.05752 12.2424C8.80747 12.4925 8.66699 12.8316 8.66699 13.1852C8.66699 13.5534 8.36852 13.8519 8.00033 13.8519C7.63213 13.8519 7.33366 13.5534 7.33366 13.1852V3.85189C7.33366 2.96783 7.68485 2.11999 8.30997 1.49487ZM8.66699 10.8758C9.06893 10.6438 9.52817 10.5186 10.0003 10.5186H14.0003V1.85189H10.667C10.1366 1.85189 9.62785 2.0626 9.25278 2.43767C8.87771 2.81275 8.66699 3.32146 8.66699 3.85189V10.8758Z" fill="#828282"/>
</svg>
